<svg width="24" height="27" viewBox="0 0 84 27" fill="none" xmlns="http://www.w3.org/2000/svg">
<g clip-path="url(#clip0_13472_6385)">
<path d="M78.5284 6.77015L83.3015 4.62601C82.6559 3.29041 80.3276 0 75.655 0C72.0144 0 69.7866 2.06738 68.7071 3.6742C67.4318 5.81834 66.6433 10.7667 71.7551 13.6938L76.7557 16.6721C79.7137 18.4478 78.3802 21.2981 75.655 21.2981C73.3532 21.2981 72.1096 18.9851 72.1096 18.9851L67.3206 21.1446C68.4372 23.4985 71.21 26.3949 75.7662 26.3949C79.8302 26.3949 82.5924 23.6776 83.492 21.3186C85.2594 16.7898 82.0209 13.8832 79.7137 12.522L74.7449 9.57953C71.8133 7.89083 73.0833 5.08145 75.7662 5.08145C77.0203 5.08145 78.0416 5.83369 78.5284 6.76503V6.77015ZM55.8959 25.8883H61.1453V0.501493H56.2293V17.4857H56.1393L44.3707 0.501493H39.1213V25.8883H44.0373V8.90405H44.1273L55.8959 25.8883ZM25.3365 25.8934H30.5859V20.8171H25.3365V25.8934ZM25.3365 18.2789H30.5859V0.50661H25.3365V18.2738V18.2789ZM16.7746 18.2891V0.50661H11.5253V18.2738C11.5253 19.9727 10.0277 21.293 8.3238 21.293C6.01134 21.293 4.78367 18.9851 4.78367 18.9851L0 21.1497C1.32821 23.8977 4.2545 26.4 8.43492 26.4C13.0387 26.4 16.7746 22.7463 16.7746 18.2942V18.2891Z" fill="#DA0024"/>
</g>
<defs>
<clipPath id="clip0_13472_6385">
<rect width="84" height="26.4" fill="white"/>
</clipPath>
</defs>
</svg>
